<?xml version="1.0" standalone="no"?>
<!DOCTYPE svg PUBLIC "-//W3C//DTD SVG 20010904//EN"
 "http://www.w3.org/TR/2001/REC-SVG-20010904/DTD/svg10.dtd">
<svg version="1.0" xmlns="http://www.w3.org/2000/svg"
 width="1280.000000pt" height="1265.000000pt" viewBox="0 0 1280.000000 1265.000000"
 preserveAspectRatio="xMidYMid meet">
<g transform="translate(0.000000,1265.000000) scale(0.100000,-0.100000)"
fill="#000000" stroke="none">
<path d="M347 12142 l-27 -28 0 -416 0 -417 43 -5 c23 -3 100 -13 172 -22 362
-44 675 -131 835 -234 172 -111 263 -331 300 -730 8 -80 10 -1307 8 -4010 -3
-3634 -5 -3902 -21 -4000 -38 -231 -104 -408 -186 -501 -49 -56 -141 -117
-238 -159 -163 -69 -451 -134 -733 -166 -74 -8 -145 -17 -157 -20 l-23 -4 0
-418 0 -419 23 -22 24 -22 3109 4 c2291 3 3145 7 3244 15 632 56 955 101 1380
192 1772 381 3062 1306 3756 2691 338 676 528 1424 596 2344 16 221 16 931 0
1145 -88 1164 -366 2053 -887 2835 -750 1126 -1971 1878 -3568 2200 -427 85
-843 137 -1417 177 -128 8 -987 13 -3190 15 l-3015 4 -28 -29z m6273 -896
c1033 -131 1691 -551 2070 -1321 159 -323 265 -651 355 -1100 144 -717 199
-1396 199 -2460 0 -859 -33 -1421 -120 -2010 -209 -1421 -626 -2174 -1431
-2583 -473 -240 -1023 -344 -1743 -329 -682 14 -1006 117 -1151 366 -81 137
-139 382 -159 671 -14 202 -14 7573 1 7769 26 374 105 625 239 761 124 127
394 215 765 249 157 15 827 6 975 -13z"/>
</g>
</svg>
